<?xml version="1.0" encoding="UTF-8"?>
<svg id="Layer_1" xmlns="http://www.w3.org/2000/svg" version="1.1" viewBox="0 0 255.9 220.8">
  <!-- Generator: Adobe Illustrator 29.4.0, SVG Export Plug-In . SVG Version: 2.1.0 Build 152)  -->
  <path id="Y6WTPU" d="M63.1,28c-2.5-2.5.6-9.2,2.1-11.9,4-7,12.6-10.5,20.4-8.8l106.2,35.6c8.8,3.8,13.5,13.9,10.6,23.1l-48,143.2c-2,4.8-8.6,2.5-7.8-2.3l47.9-142.4c2.3-5.5-.4-12-6-14.2L84,15.2c-4.8-.8-9.4.5-11.8,4.9s-2,9-6,9-2.6-.7-3.1-1.2ZM229.8,68.6c.7,2.3,10.4,9.4,12.8,11.7,4.6,4.4,6.8,8.4,3.8,14.8l-84.9,98.3c-3.2,6.2,3.8,9.2,7.5,4,24-28.6,49.2-56.3,73.4-84.9,8.2-9.7,18.8-18.8,10.6-32.6s-11.9-12.1-15.6-14.8-2.5-1.9-4.9-1.4-3.2,2.9-2.7,4.9ZM150.3,8.9c6.5-2.8,10.4.8,15,4.5,19.3,15.6,37.2,33.2,56.4,48.9,4.4,2.7,8.8-3.2,4.7-6.7-20.2-15.6-38.6-35.2-58.7-50.7s-25.1-4.1-32.9,8.1-1.5,3.7,0,5.5c4.8,5.2,10.9-7.7,15.3-9.6ZM0,48.8v155.8c.9,8.3,7.8,15.4,16.2,16.2h113.4c7.7-.6,14.5-7,16-14.5,1.3-52.8,1.1-106.1.1-158.9-2.2-8.7-9.2-14.1-18.1-14.8H17.4C8.7,33.5,1.3,40.1,0,48.8ZM125.6,40.6c5.4.4,10,2.1,11.9,7.6.8,51.7,0,103.6.4,155.4-.2,4.2-3.8,7.4-7.5,9H15.5c-4-1.6-7.2-5-7.5-9.5V49.8c1.2-5.4,5.3-8.8,10.9-9.1l106.7-.2ZM76.3,48.4c-1.2-2-3.6-2.4-5.6-1.3-5.2,7.1-7.8,16-12.3,23.6-7.3,1.8-15.2,1.9-22.6,3.4s-5.6.9-5.4,4.6,2.7,3.7,4.2,5.3l14.6,14.8c-.6,7.4-3.5,15.6-3.9,22.9s.6,6.5,5.5,5.5l21.7-11.2c1.2,0,4.9,2.1,6.2,2.7,3.9,2,12.4,7.6,15.9,8.5s5.5-.3,5.8-3.9l-4.2-24.5,17.6-17.3c2-2.5,1.6-5.9-1.7-6.9l-25-3.7-11.2-22.5ZM101.6,82.5c-3.5,3.4-9.8,8.2-12.5,12s-.9,1.2-1,2c-.7,4,3.1,14.8,3.3,19.5-.8.7-16-9-18.7-9l-18.2,9,3.3-19.5c-3.6-5.9-10-10-14.3-15.5,4.4-.3,8.8-.8,13.1-1.6s5.2-.6,6.6-1.4c2.1-1.2,9.4-18.6,10.2-18,2.1,3.4,6.3,16.3,9.2,18s2.4.7,3.6.9c5.2,1,10.9,1.6,16.1,2.1.2.8-.3,1-.8,1.5ZM17.7,146.4h110.4c5.3.2,7.6-6.4,2-8H15.4c-5.1,2.3-2.7,8.2,2.4,8ZM34.2,197.4h77.4c5.1-.5,5-7.5,0-8H33.3c-4.3,1.6-3.7,7.6.9,8ZM35.2,182.9h75.9c5.8-.7,5.4-7.5,1-8H33.7c-3.1.4-4.4,4.8-2.1,6.9s2.5,1.2,3.6,1.2ZM63.2,167.9h48.9c4.4-.5,4.8-7.3-1-8h-47.3c-4.8,1-5,7.3-.6,8ZM33.2,167.9c2.2.4,17.2.4,19.4,0,3.9-.7,3.6-7.2-1-7.9s-13.6-.4-17,0-2.4.6-3.1,1.2c-2.1,1.9-1.1,6.3,1.6,6.8Z"/>
</svg>