<?xml version="1.0" encoding="UTF-8"?>
<svg id="Layer_1" xmlns="http://www.w3.org/2000/svg" version="1.1" viewBox="0 0 201.8 255.9">
  <!-- Generator: Adobe Illustrator 29.2.1, SVG Export Plug-In . SVG Version: 2.1.0 Build 116)  -->
  <g id="iPxNFO">
    <g>
      <path d="M152.8,33.7h27.2c10.2,0,22.8,15.5,21.7,25.7v172.3c0,13.3-10.3,23-23.2,24.2H22.3C9,253.5.9,245.3,0,231.6V59.4c-1-10.3,11.5-25.7,21.7-25.7h27.2v-11.7c0-.5,1.3-1.8,1.8-2.2,4.7-3.3,16.5-.7,22.3-1.6,1.9-3.2,3.5-6.7,6.1-9.4,11.1-11.8,33.1-11.6,43.7.8,2.3,2.7,3.4,5.8,5.3,8.6,3.7.6,24.6-1.8,24.6,3.8v11.7ZM140.3,30.7h-18.7c-3.9,0-5.1-7.3-6.5-10-6-11.6-22.5-11.8-29-.5s-3.4,10.5-6.5,10.5h-18.2v24h78.9v-24ZM49,46.1h-25.2c-4.1,0-10.7,6.9-10.7,11.2.3,59.6-.6,119.3.5,178.8,2.1,4.5,6.4,6.8,11.2,7.2h151.8c5.6-.1,11.7-3.8,12.2-9.7V57.4c0-4.4-6.6-11.2-10.8-11.2h-25.2v16.2c0,.1-1.2,2.1-1.5,2.5-1.7,2.2-4,2.6-6.7,2.8-27.9,2.2-58.7-1.7-86.9,0-2.8.5-8.7-2.2-8.7-5.3v-16.2Z"/>
      <path d="M93.3,198h72.3c7.4.8,7.5,11.5-.5,12.4h-70.9c-7.1-.8-7.6-10.6-.9-12.4Z"/>
      <path d="M93.3,100.7h72.3c7.8.8,7,11.8-.5,12.4h-70.4c-7.5-.6-8.4-10.3-1.4-12.4Z"/>
      <path d="M93.8,149.1h70.8c7.6.5,9.1,10.5,1.5,12.4h-72.4c-6.9-1.6-6.9-10.6.1-12.4Z"/>
      <path d="M72.3,134.1c5.1-.7,9.1,5.3,6.2,9.7-7.4,6.8-14.5,14.8-22.1,21.4s-6.1,5.9-10.5,3-11.6-10.9-13.3-13.2c-5.3-6.8,1.5-14.6,8.5-9.5s7.1,8.7,8.4,8.4l19.5-18.4c.8-.6,2.1-1.3,3.1-1.4Z"/>
      <path d="M71.3,183.1c5.4-1.1,9.7,3.5,7.7,8.7-5.7,5.9-11.6,11.8-17.6,17.4s-8.1,7.8-9.6,8.3-2.3.6-3.6.4c-4.5-.7-12.9-12.9-16.9-16.1-.9-3.3-.6-6.9,2.7-8.6,7.5-3.6,13,9.9,16.1,9.1s15.4-15.6,18.3-17.7c.8-.6,1.9-1.4,2.9-1.6Z"/>
      <path d="M71.3,85.7c5.4-1.1,9.7,3.5,7.7,8.7-5.7,5.9-11.6,11.8-17.6,17.4s-8.1,7.8-9.6,8.3-2.3.6-3.6.4c-4.5-.7-12.9-12.9-16.9-16.1-.9-3.3-.6-6.9,2.7-8.6,6.7-3.2,10.2,5.8,14.7,8.7s.6.5,1.3.3c2.6-.7,15.1-15.2,18.4-17.5.8-.6,1.9-1.4,2.9-1.6Z"/>
    </g>
  </g>
</svg>