<?xml version="1.0" encoding="UTF-8"?>
<svg id="Layer_1" xmlns="http://www.w3.org/2000/svg" version="1.1" viewBox="0 0 256.5 255.9">
  <!-- Generator: Adobe Illustrator 29.4.0, SVG Export Plug-In . SVG Version: 2.1.0 Build 152)  -->
  <path d="M117.9.3c108.9-6.9,178.1,113.8,113.8,202.7-52.5,72.6-161.5,69.9-210.8-4.7C-32.2,117.9,21.6,6.4,117.9.3ZM120.9,8.8C31.6,14-20.4,112.8,25.9,189.8c46.8,77.7,161,76,205.8-2.8C278.5,104.6,215,3.3,120.9,8.8ZM120.9,17.8c88.2-5.5,147.3,90.4,101.8,166.8-42.5,71.5-147,71.5-189.5,0C-9,113.6,39,22.9,120.9,17.8ZM123.5,26.6c-51.5,1.3-95.5,45.3-96.8,96.9h17.7c.3,0,2.7,1.1,3,1.5,2.4,2.6.3,7.5-3,7.5h-17.7c1.3,51.5,45.3,95.5,96.8,96.9v-17.7c0-.3,1.1-2.7,1.5-3,2.6-2.4,7.5-.3,7.5,3v17.7c51.5-1.3,95.5-45.3,96.8-96.9h-17.7c-.3,0-2.7-1.1-3-1.5-2.4-2.6-.3-7.5,3-7.5h17.7c-1.3-51.5-45.3-95.5-96.8-96.9v17.7c0,.3-1.1,2.7-1.5,3-2.6,2.4-7.5.3-7.5-3,0,0,0-17.7,0-17.7ZM184.8,66.1c3-.4,5.9,2.9,4.8,5.8l-34.5,77.8c-1,3.1-2.6,3.8-5.2,5.2-24.1,12.6-52,21.5-76.4,34-3.3,1.6-6.6.4-7.3-3.4,11.6-27.7,24-55.3,36.7-82.6,27-13,54.7-24.6,82-36.8h-.1ZM176.4,79.5l-62.9,27.5c-.2.3,5,5.3,5.3,5.4.7.2,4.9-1.7,6.4-1.9,12.1-1.4,21.5,8,20.1,20.1s-2.1,5.8-1.9,6.4c.3,1.1,4.3,4.1,5.2,5.3l27.7-62.9h0ZM142.5,148.9c.2-.3-5-5.3-5.3-5.4-.7-.2-4.9,1.7-6.4,1.9-12.1,1.4-21.5-8-20.1-20.1s2.1-5.8,1.9-6.4-5.1-5.6-5.4-5.3l-27.5,62.9,62.9-27.5h-.1ZM134.3,121.6c-8.3-8.3-20.9,4.3-12.6,12.6,8.3,8.3,20.9-4.3,12.6-12.6Z"/>
</svg>