<?xml version="1.0" encoding="UTF-8"?>
<svg id="Layer_1" xmlns="http://www.w3.org/2000/svg" version="1.1" viewBox="0 0 255.7 256">
  <!-- Generator: Adobe Illustrator 29.4.0, SVG Export Plug-In . SVG Version: 2.1.0 Build 152)  -->
  <path id="lcOtQv" d="M138.4,44.7c5.4,5.7,13.9,7.5,21.2,5s11.2-10.4,20.4-9.4,11.8,6,12.3,12.2c.8,8.9-4.7,13.2-11.3,17.7-11.4,7.6-26.4,11.8-40.1,10.1l-5.9,18.2c2.2,1.6,4.5,2.5,6.7,4.3,16.8,14.1,2.5,35.3-.2,52.4l21-20.7c2.5-2.2,5.3-1.6,7.7.3s16.2,17.1,17.4,16.9l22.3-22.2c-4.5-3.9-12.6-11.7-2.6-14.6s29.5-5,43.3-8.7c4.5.5,5.5,2.5,5.2,6.8-.9,13.3-7.2,29.2-8.6,42.8-5.1,9.5-11-.6-15.6-4.6l-40.2,40.2c-1.6,1.4-3.5,2.1-5.6,1.6-3.2-.7-18.2-18.9-19.6-18.9l-24.2,24.2c-4.9,4.9-11.5.4-8.9-5.9l30.5-30.4c1.6-.7,3.9-.7,5.3.4l18.2,18.2,41.2-41.2c5.2-3.1,6.6,1.7,9.7,3.7s.4.8,1,0l4.5-25-25.2,5c2.5,2.9,5.7,5.1,3,9.2l-30.9,31c-2.6,1.8-4.3,1.5-6.8-.3l-17-17-1.3-.2-90.1,90.1c-.3.4-.2.6,0,1,.9,1.7,5.3,4.6,6.5,6.5l24.5-24.4c5.6-3.1,10.8,3.3,6.7,8.2-9.2,7.9-17.5,19.1-26.7,26.7s-5.1,3.1-8.3.7-12.9-12.2-14.5-14.5-2.1-4.6-.3-6.8l55.7-55.6c-7.1-3.8-10-8.2-9.4-16.4s4.2-21.3,4.9-31.8l-2.5.3-37.8,74.9c-8.7,13.8-30,7.6-28.6-9.1s2.8-9.7,4-12c3.2-5.9,10.8-2.9,10,3s-6.3,10.7-1.7,14.3,3,1.3,4.8.8,6.4-9.7,7.7-12.2c11.8-22.5,22.4-45.6,34.3-68.1,2.3-3.1,12.9-2.8,16.5-2.2s5.1,2.9,4.8,6c-.6,11.5-6.2,27-6,38s5.9,6.4,7.9,1.4c2.3-13.2,9.7-28.5,11.5-41.4s-3.2-13.8-10.6-15.6h-39.1s-16.1,42.6-16.1,42.6c-1.3,4.6-8.7,4.2-9.8,0s5-14.2,5.9-19.1c-8.4,6.8-16.9,22.6-29.2,12.5-13-10.7-24.7-26.5-37.7-37.7-3.2-4.3-3.7-10.4-.3-14.7,9.8-8.3,18.6-20.5,28.5-28.5,11.2-9.1,18.5,4.1,26.2,10.5,3.6-6.7,12.5-7.4,19.1-10.6s13.1-8,18.1-12.8,6.7-8.6,12.2-11.3,6-1.9,6-2.5c-12.7-18.4,5.8-42.1,27-34.4,20.3,7.4,19.6,37-1,43.2ZM143.9,23c0-6.9-5.6-12.6-12.6-12.6s-12.6,5.6-12.6,12.6,5.6,12.6,12.6,12.6,12.6-5.6,12.6-12.6ZM124.4,97.1c2.2-6.5,4.2-13.2,6.6-19.6s1.7-5.5,3.2-6.8c2.6-2.3,6-.6,8.9-.6,10.8.1,20-1.7,29.4-7.1s13.1-7.6,8.3-11.6-7.7,2.6-10.5,4.4c-9.7,6.2-21,7.2-31.4,2.1s-10.9-13.5-23.6-11.6-10.8,6.9-12.7,13.2c-3.8,12.2-6.1,25.3-9.6,37.6h31.4ZM90,66.6c-4,2.3-7.9,4.7-12.1,6.6s-9.9,3.1-11.3,4.2c-3,2.3-.5,6.8,2.6,6.6s15.7-5.5,17.5-7,2.4-7.9,3.3-10.4ZM37.9,70.2c-.7.2-9.3,8.8-9.6,9.4s-.2.5,0,1,8.4,9,9,9c.9,0,3.5-5.9,8.8-2.3s12.2,12,12.6,12.9c.5,1.2.6,3.3.3,4.5s-3.4,2.5-2.7,3.8,9.2,9.5,9.8,9.8.5.2,1,0,8.5-8.3,9-9,.5-.6.5-1l-.3-.7c-5.1-3.6-35.8-38.1-38.4-37.4ZM20.3,87.6c-1.4,1.9-9.6,8.7-9.8,10.3s0,.8.3,1.2l37.9,37.4,10.3-10.2c-2.8-1.8-8.6-9.9-11-11s-2.2.7-3.3.8c-3.9.2-6,0-9.2-2.3s-6.3-6.4-6.5-10.5,1.4-4.7.7-6.2c-1-2.2-7.9-7-9.5-9.5ZM84,90.1l-7.5,2.5,5.2,5.5,2.2-8ZM42.8,98.6c-6.5,4.2-.6,10.6,3.7,4.2l-3.7-4.2ZM123.4,204.1c-2.9,0-5.2,2.3-5.2,5.2s2.3,5.2,5.2,5.2,5.2-2.3,5.2-5.2-2.3-5.2-5.2-5.2ZM61.5,161.8c-2.9,0-5.2,2.3-5.2,5.2s2.3,5.2,5.2,5.2,5.2-2.3,5.2-5.2-2.3-5.2-5.2-5.2Z"/>
</svg>