<?xml version="1.0" encoding="UTF-8"?>
<svg id="Layer_1" xmlns="http://www.w3.org/2000/svg" version="1.1" viewBox="0 0 200.8 232.9">
  <!-- Generator: Adobe Illustrator 29.2.1, SVG Export Plug-In . SVG Version: 2.1.0 Build 116)  -->
  <g id="OZsTIv">
    <g>
      <path d="M144.3,28.6h45.2c.4,0,4.1,1.9,4.7,2.3,3.4,2.4,5.7,6.3,6,10.4,1.6,21.9-1.2,45.8,0,67.9,0,4-7.1,11.3-10.7,11.3h-23.2c2,3.3,9.2,7.8,9.9,11.4s-2.2,5.6-5,5-17.5-17.9-21.3-20.7c-.1-.6.4-.8.7-1.2,2.7-3.5,13.7-14.5,17.2-17.2s4.5-2.7,6.8-.3c4.6,5-7.1,10.8-9.3,15h20.7c.2,0,2.6-.9,2.9-1.1,2.6-1.5,3.1-4.3,3.3-7.2,1.4-19.5-1.1-40.7,0-60.4.1-3.2-3-7.2-6.2-7.2h-41.7v17.7c0,3.6-6.9,10.2-10.8,10.2-21-1.4-44.6,1.9-65.4,0-6.4-.6-11.2-5.9-11.7-12.2-1-13.1.8-27.6,0-40.9,1.1-5.6,5.9-10.3,11.7-10.8,20.7-1.9,44.3,1.4,65.4,0,3.9,0,10.8,6.6,10.8,10.2v17.7ZM134.7,10.3c-1.3-1.3-3.8-1.6-5.5-1.7-18.7-1.4-39.1,1.1-57.9,0-4.8.4-6.3,2-6.7,6.7-.8,8.9-.8,25.6,0,34.5s2,6.3,6.7,6.7c18.9-1.2,39.8,1.6,58.4,0s6.3-2,6.7-6.7c.8-8.9.8-25.6,0-34.5s-.5-3.9-1.7-5.1Z"/>
      <path d="M56.5,120.4H14.8c-.2,0-2.6.9-2.9,1.1-2.6,1.5-3.1,4.3-3.3,7.2-1.4,19.5,1.1,40.7,0,60.4-.1,3.2,3,7.2,6.2,7.2h20.7c-2.1-3.9-13.7-10.1-9.3-15s4.6-1.4,6.8.3c3.6,2.8,14.5,13.7,17.2,17.2s.8.6.7,1.2c-3.8,2.8-18.1,20-21.3,20.7s-5.6-2.2-5-5,8.8-8.5,10.4-11.4H11.3c-.4,0-4.1-1.9-4.7-2.3-3.4-2.4-5.7-6.3-6-10.4-1.6-21.9,1.2-45.8,0-67.9,0-4,7.1-11.3,10.7-11.3h45.2v-17.7c0-3.6,6.9-10.2,10.8-10.2,21,1.4,44.6-1.9,65.4,0,6.4.6,11.2,5.9,11.7,12.2,1,13.1-.8,27.6,0,40.9-1.1,5.6-5.9,10.3-11.7,10.8-20.7,1.9-44.3-1.4-65.4,0-3.9,0-10.8-6.6-10.8-10.2v-17.7ZM134.7,94.2c-1.3-1.3-3.8-1.6-5.5-1.7-18.7-1.4-39.1,1.1-57.9,0-4.8.4-6.3,2-6.7,6.7-.8,8.9-.8,25.6,0,34.5s2,6.3,6.7,6.7c18.9-1.2,39.8,1.6,58.4,0,4.8-.4,6.3-2,6.7-6.7.8-8.9.8-25.6,0-34.5s-.5-3.9-1.7-5.1Z"/>
      <path d="M66.8,168.5h65.8c5.6.2,11.1,5.5,11.7,11.1-1.1,13.2,1.4,28.5,0,41.4s-5.8,10.6-11.2,11.2c-20.9-1.4-44.3,1.9-64.9,0-5.4-.5-10.9-5.3-11.7-10.8-1.7-12.7,1.2-28.8,0-41.9.6-5.2,5.3-10,10.4-11.1ZM134.7,178c-1.3-1.3-3.8-1.6-5.5-1.7-18.7-1.4-39.1,1.1-57.9,0-4.8.4-6.3,2-6.7,6.7-.8,8.9-.8,25.6,0,34.5s2,6.3,6.7,6.7c18.9-1.2,39.8,1.6,58.4,0,4.8-.4,6.3-2,6.7-6.7.8-8.9.8-25.6,0-34.5s-.5-3.9-1.7-5.1Z"/>
    </g>
  </g>
</svg>