<?xml version="1.0" encoding="UTF-8"?>
<svg id="Layer_1" xmlns="http://www.w3.org/2000/svg" version="1.1" viewBox="0 0 231.9 255.9">
  <!-- Generator: Adobe Illustrator 29.4.0, SVG Export Plug-In . SVG Version: 2.1.0 Build 152)  -->
  <path d="M50,55.5c4.4,2.1,7.9-2,5.1-6.2-1.4-2-13.4-14-15.5-15.5-1.1-.8-2.3-1.4-3.6-1.1-3.6.6-3.8,4.5-1.9,7.2,1.3,1.7,14.5,14.8,15.9,15.6ZM182.8,54.8c2.2-1.5,13.8-13,15.2-15.2,2.2-3.2.5-7.4-3.3-6.9-.9,0-1.7.6-2.4,1.1-1.7,1.2-14.7,14.2-15.7,15.8-2.8,4.4,1.5,8.4,6.2,5.2ZM119.9,26.4c.6-4.1.5-18.4,0-22.5-.4-3-2.6-4.5-5.7-3.6-1.1.3-2.1,2.1-2.3,3.2-.6,3.9-.5,18.3,0,22.4.6,5.3,7.3,4.8,8,.5ZM26.8,112H2.5c-3.8,2.3-3.1,7.3,1.4,7.9,4.1.6,17.8.6,21.9,0,4.7-.7,5.3-6.2,1-7.9ZM229,112h-24.3c-3.8,2.3-3.1,7.3,1.4,7.9,3.9.5,18.1.6,21.9,0,4.6-.7,5.3-6.2,1-7.9h0ZM79.8,34c2.3,3.2,6.8,2.2,7.2-1.2.3-2.8-3.6-13.3-7.6-12.6-2.1.4-3.6,3-3.3,5,.2,1,3.1,8,3.7,8.8ZM152,33.8h.1c.6-.9,3.6-8.6,3.6-9.4,0-3.3-4.4-5.6-6.9-3.1s-4.1,9.4-4.2,10.6c0,4.2,5,5.8,7.4,1.9h0ZM34.3,79.6c-.7-.5-8.7-3.5-9.5-3.5-4.2-.3-5.8,5.2-2.4,7.4.9.6,8.1,3.4,9.1,3.5s2.8-.3,3.5-1.1c1.7-1.7,1.2-4.9-.7-6.3ZM207.1,76c-.7,0-8.8,3.1-9.5,3.5-2,1.3-2.3,4.6-.7,6.3.7.7,2.5,1.2,3.5,1.1s8.2-2.9,9.1-3.5c3.4-2.3,1.8-7.7-2.4-7.4h0ZM77.3,48.1l.2.2c-3.1,1.7-9.5,4.8-5.8,9.1,2.9,3.4,10.3-2.7,13.6-4.3,58-27,119.9,29,99,89.5-6.3,18.3-15.1,24.7-28.7,36.7-5.3,4.6-8.6,10.4-9.8,17.4-.8.5-10.5-.2-12.7,0-5.3.6-4.5,7.3-.5,8,3.8.7,9.3-.5,13.2,0v18.7c0,.2-.8,3.1-1,3.5-1.1,2.7-4,4.5-6.8,4.7-14.3,1.4-30.9-1.1-45.4,0-3.2-.2-6.8-4.7-6.8-7.7v-19.2h32.7c3.6,0,5.5-6.9.9-7.9l-33.5-.2c-1-4.8-2.8-9.5-5.8-13.4-3.4-4.4-8.6-7.1-12.7-10.8-29.4-26.4-31.6-69.1-7.5-99.8,2.5-3.1,9.5-7.7,5.7-11.7-3.3-3.5-7.8,2.1-10,4.5-30.2,33.4-25.6,84.8,7.7,114.1,2.8,2.4,6.8,4.7,9.3,7.2,13.3,13.8-2.7,41.2,13.3,50.6,1.4.8,4.5,1.6,5.2,2.3.8.7,2.4,4.5,3.5,5.9,10.6,13.6,31.7,13.6,42.3,0,1.1-1.4,2.8-5.2,3.5-5.9s3-1.1,4.3-1.7c15.8-8.6,3.9-31.9,10.8-46.1,3-6.1,7.9-8.1,12.7-12.3,31.1-27.5,37.5-73.3,13.1-107.5-23.2-32.6-68.6-43.9-104-23.9h0ZM100.5,239.8h30.9c-6.8,11-24.1,10.9-30.9,0ZM160.2,90.6c-1.1-1.5-9.4-9.8-10.8-10.7-5.5-3.5-10.6,6.1-13.6,5.7-.4,0-6.4-2.6-6.6-2.9-2.4-3.3,1.1-12.4-5.5-13-3-.3-14.3-.5-16.9,0-4.3,1-2.2,11.2-4.4,13.1-.3.3-6.8,2.8-7.1,2.7-1.6-.4-6-5.2-8-6-2.2-.9-3.6-.5-5.4.9-1.5,1.1-9.8,9.4-10.7,10.8-3.3,5.2,6.1,10.2,5.6,13.6-.3,1.9-2.5,4.5-2.5,6.8v-.2c-4.4,1-12.8-.7-13.5,5.2h0c-.3,3.1-.4,13.9,0,16.5,1,4.7,11.6,2.3,13.3,4.6.3.5,2.6,6.5,2.6,6.9,0,1.2-5.3,6.4-6.1,8.4-.9,2.2-.5,3.1.8,4.9,1.1,1.5,9.4,9.8,10.8,10.7,5.5,3.5,10.7-5.9,13.6-5.6.4,0,6.4,2.6,6.6,2.9,2.7,3.7-1.7,12.6,6.5,13.5,3.1.3,11.4.4,14.4,0,6.9-1.1,3.2-11.4,5.9-13.6.3-.2,6.3-2.7,6.7-2.6,1.5,0,6.4,5.2,8.5,6,2.3.9,3.5.5,5.4-.8,1.2-.9,10.8-10.6,11.1-11.4,2.1-5-6.5-9.8-6-13,0-.6,2.6-6.4,2.9-6.6,4-1.3,12.4.4,13-5,.4-3.4.4-12.6,0-16-.6-5.2-9.5-3.9-13.4-4.8.2-2.1-2.7-5.9-2.5-7.6.6-4,9.5-7.6,5.2-13.4h.1ZM162.7,120v8.4c-2.9,1.1-8.7.4-11,2.3-1.5,1.2-1.9,4.8-2.7,6.8-.7,1.7-2.9,4.9-3.1,6.4-.8,4,6.6,9.2,5.7,11.1-.2.3-5.1,5.4-5.5,5.4-2.6-1.3-6.7-6.1-9.5-6.2-1.6,0-6.5,2.8-8.6,3.6-1.4.6-3.3.7-4.6,1.4-3,1.8-2.6,9-3,12.2h-9c-.3-2.8-.3-9.1-2-11.2-1.1-1.4-6.6-2.8-8.8-3.6-1.8-.7-3.2-2.4-5.4-2.3-2.7,0-8.8,6.5-9.7,6l-5.4-5.6c-.3-1.6,5.9-6.8,5.9-9.9s-2.5-5.4-3.3-7.2c-1-2.4-1.1-6.2-3.6-7.3-1.6-.7-9.9-1.1-10.1-1.9v-8.2c.4-.3,7.4-.8,8.6-1.1v-.3c4.4-1.1,3.6-4.4,5.1-7.9.7-1.7,2.9-4.9,3.1-6.4.8-4-6.6-9.2-5.7-11.1.2-.3,5.1-5.4,5.5-5.4,2.6,1.4,6.8,6.1,9.6,6.3,1.3,0,6.8-3,8.5-3.7,1.4-.6,3.3-.6,4.6-1.4,2.9-1.7,2.7-9.1,3-12.2l8.5.2c1,.7.4,9,2.7,11.3,1.1,1.1,6.5,2.7,8.5,3.5,1.6.7,3.6,2.4,5.4,2.4,2.6,0,8.9-6.5,9.8-6.1l5.4,5.6c.3,1.6-5.9,6.8-5.9,9.9s2.5,5.4,3.3,7.2c1.3,2.9,1,6.8,4.7,7.8,1.3.3,8.6.9,9,1.2h0ZM115.9,99.9c-13.5,0-24.4,10.9-24.4,24.4s10.9,24.4,24.4,24.4,24.4-10.9,24.4-24.4-10.9-24.4-24.4-24.4ZM115.9,140.9c-9.2,0-16.6-7.4-16.6-16.6s7.4-16.6,16.6-16.6,16.6,7.4,16.6,16.6-7.4,16.6-16.6,16.6Z"/>
</svg>