<?xml version="1.0" encoding="UTF-8"?>
<svg id="Layer_1" xmlns="http://www.w3.org/2000/svg" version="1.1" viewBox="0 0 248.6 168.5">
  <!-- Generator: Adobe Illustrator 29.4.0, SVG Export Plug-In . SVG Version: 2.1.0 Build 152)  -->
  <path id="L4hWO3" d="M40.6,24.9c-.1.1-.2,1.2-.5,1.7-10.1,15.4-30.4,1.9-22.6-12.6s15.8-8.7,21.3-1.7,1.3,2.9,2.6,3.9c7,.9,16.1-.9,22.9.1s4.4,7.4-.6,8.3-22.2-.6-23,.2ZM33.2,20.4c0-2.5-2-4.5-4.5-4.5s-4.5,2-4.5,4.5,2,4.5,4.5,4.5,4.5-2,4.5-4.5ZM48.8,101.2c15.9,1.4,33.9-1.1,50,0,5.4-.6,5-8.2-.5-8.5-15.7,1.4-34.6-1.8-49.9,0-3.7.4-5.7,4.7-3.1,7.4s2.5,1.1,3.6,1.2ZM45.9,138.8c1.3,1.3,2.2,3.2,3,4.8,4.7.3,15.2-2.2,13.7,5.7s-10.1,1.8-13.1,2.8-2.1,3.2-2.8,4.2c-6,7.2-17.8,5.6-21.5-2.9-6-13.6,11-24.5,20.9-14.6ZM41.1,148c0-2.5-2-4.5-4.5-4.5s-4.5,2-4.5,4.5,2,4.5,4.5,4.5,4.5-2,4.5-4.5ZM20.8,126.7c13.1,1.5,29-1.1,42.4,0,5.4-1.5,4.6-8.1-1-8.5-13,.9-27.6-1.2-40.5,0s-2.7.4-3.6,1.2c-2.5,2.3-1.2,6.9,2.6,7.3ZM51.8,50.3c17.4,1.6,37.3-1.3,54.9,0,5.5-.2,5.9-7.9.5-8.5h-56.4c-3.6,0-5.1,5.1-2.6,7.3s2.4,1.1,3.6,1.2ZM12,50.2c2.9.5,14.9.5,17.8,0,4.5-.7,5.2-7.4.9-8.4s-17.2-.5-19.3,0c-4.4,1-4.4,7.4.5,8.3ZM79.3,126.6c2.3.5,16.3.5,18.8,0,4.5-.7,4.6-7.2.3-8.2s-16.2-.6-18.6-.1c-4.6.9-4.4,7.4-.5,8.3ZM90.4,75.5c1.5.5,11.5.5,13.1.1,4.1-.9,4.5-6.9.4-8.2s-11.5-.5-13.1-.1c-4.1.9-4.4,6.9-.4,8.2ZM150.5,165.2c1.2,2.1,2.8,2.7,5.1,2.9,4.6.4,15.5.5,20,0,6.8-.8,5.6-11.5,8.9-14s8.3-2.9,10.2-3.7,4.6-2.7,6-3c3.1-.7,11,6.5,14.9,4.4l17.4-17.6c1.3-3.8-5.1-11.1-4.8-14.2s3.6-7.3,4.2-8.8c1-2.3,1.7-7.2,3.6-8.4,2.9-1.8,11.7-3,12.5-6.5v-24.6c-1.2-3.5-11.3-4.3-13.4-6.7s-2-6-2.7-7.8c-1.2-2.9-2.4-5.8-4.1-8.4-.8-3.4,7.1-11.7,4.1-15.6l-17.1-16.9c-3.9-1.4-11.3,5-14.3,4.8s-7.2-3.4-8.8-4.1c-2.5-1-7.4-2-8.6-3.9-2.2-3.6-2.6-11.9-7.3-12.7s-16.6-.5-20.9-.1-3.9.7-5.1,2.9-3.1,10-4.2,11-8,2.9-9.7,3.5-5.6,3.3-7,3.5-9.4-4.6-12.3-4.9c-10.9,1-23.8-1.2-34.5,0s-5.1,7.4-.4,8.4c10.4,1.2,23.2-1.2,33.3.2s11.1,5.9,14.5,5.4,7.9-4,10.4-5.1,10.5-3,11.8-4.2,4.3-11.6,5.1-12.1h15.6c.7,0,3.6,11.8,5.8,12.6,4,1.3,8.1,2.4,11.9,4s7.7,4.5,9.3,4.7c3.8.5,8.9-4.1,12.8-4.4.7.2,10.3,9.7,10.6,10.4.9,2-5,9.2-4.2,13.6s3.2,5.8,4.1,7.9c1.8,4.2,3.1,8.6,4.5,12.9,1.8,2.7,9.2,3.8,12.1,5.6v15.6c-.2,1.2-11.5,3.5-12.3,6.1-1.3,4.3-2.5,8.5-4.3,12.6s-4,6.6-4.2,8.3c-.5,3.8,3.7,9,4.4,12.8-.2.7-9.8,10.3-10.4,10.6-2.1,1-9.5-4.7-13.2-4.2s-7.1,3.8-9.3,4.7c-3.5,1.5-8.7,2.4-11.6,3.9s-4.4,9.9-6.2,12.9h-15.6c-.8-.6-3.3-10.5-5.1-12.2s-9.2-3.1-11.8-4.2-8.3-4.8-10.4-5.1c-3.4-.4-10.5,4.9-14.5,5.4-10.7,1.5-24.6-1.3-35.4,0-5.4.6-5.7,7.7-1,8.5h38.4c2.8-.4,9.4-4.9,11.5-4.9s6.1,3,7.8,3.7,8.8,2.8,9.3,3.4c1.1,1,3.1,8.9,4.2,11ZM218.2,84.2c0,29.3-23.7,53-53,53s-53-23.7-53-53,23.7-53,53-53,53,23.7,53,53ZM209.8,84.2c0-24.6-19.9-44.5-44.5-44.5s-44.5,19.9-44.5,44.5,19.9,44.5,44.5,44.5,44.5-19.9,44.5-44.5ZM185.7,58.4c5.1-.7,10.2,1.6,12.4,6.4,2.5,5.7.5,9.8-3.2,14.2-6.2,7.4-20.8,22.2-28.2,28.2s-9,4.2-13.8,1.3c-2.3-1.4-19-18.1-20.1-20.3-4.9-9.6,4.4-20,14.5-16s7.7,7.5,11.8,10l22-21.9c1.3-1,3-1.6,4.6-1.9ZM186.7,66.8l-26.3,25.7c-1.6.5-2.6.3-4-.6-3.2-2-9.7-11.1-12.5-12s-4.6,1.2-3.9,3.9c2.9,2.4,15.9,17.4,18.1,17.8s1.3,0,1.9-.1l29.5-29.4c2.5-2.5.6-6.4-2.9-5.4ZM76.3,68.4c2.2,2,1.1,6.5-1.8,7.1l-33.7.2c-5.6,15.8-29.5,7.9-24.4-8.4s15.1-11.7,21.6-4.9,1.9,3.3,3.3,4.7h31.9c.9.2,2.4.6,3.1,1.2ZM33.2,71.5c0-2.5-2-4.4-4.4-4.4s-4.4,2-4.4,4.4,2,4.4,4.4,4.4,4.4-2,4.4-4.4ZM10,84.4c4.7-.8,9.9.5,12.9,4.4s1.8,3.5,2.2,3.8c1.8,1.1,7.2-1,7.5,4s-5.5,3.8-7.5,5-1.1,2.4-1.8,3.2c-8.2,10.8-25.5,3.7-23.1-10.6.8-4.4,5.3-9,9.7-9.7ZM17.2,97c0-2.4-2-4.4-4.4-4.4s-4.4,2-4.4,4.4,2,4.4,4.4,4.4,4.4-2,4.4-4.4Z"/>
</svg>