<?xml version="1.0" encoding="UTF-8"?>
<svg id="Layer_1" xmlns="http://www.w3.org/2000/svg" version="1.1" viewBox="0 0 664.4 113">
  <!-- Generator: Adobe Illustrator 29.2.1, SVG Export Plug-In . SVG Version: 2.1.0 Build 116)  -->
  <defs>
    <style>
      .st0 {
        fill: #d9915c;
      }
    </style>
  </defs>
  <g>
    <path d="M110.2,48.2h-11.6v-6.9h31.7v6.9h-11.6v29.5h-8.4v-29.5Z"/>
    <path d="M157.1,77.8l-7-10.1h-7.7v10.1h-8.4v-36.4h15.8c9.7,0,15.8,5,15.8,13.2s-2.8,9.5-7.5,11.5l8.2,11.7h-9ZM149.2,48.2h-6.9v12.7h6.9c5.1,0,7.7-2.4,7.7-6.3s-2.6-6.3-7.7-6.3Z"/>
    <path d="M197,70h-16.9l-3.2,7.8h-8.6l16.2-36.4h8.3l16.3,36.4h-8.8l-3.2-7.8ZM194.4,63.6l-5.8-13.9-5.8,13.9h11.5Z"/>
    <path d="M245.8,41.4v36.4h-6.9l-18.1-22.1v22.1h-8.3v-36.4h7l18.1,22.1v-22.1h8.3Z"/>
    <path d="M251.3,74.2l2.9-6.3c3.1,2.2,7.6,3.8,12,3.8s7-1.7,7-3.9c0-6.8-21.2-2.1-21.2-15.7s5-11.3,15.3-11.3,9.3,1.1,12.6,3.2l-2.6,6.4c-3.4-1.9-6.9-2.9-10.1-2.9-5,0-6.9,1.9-6.9,4.2,0,6.7,21.2,2.1,21.2,15.4s-5,11.3-15.4,11.3-11.6-1.7-14.8-4.2Z"/>
    <path d="M295.5,48.1v9.6h16.8v6.8h-16.8v13.3h-8.4v-36.4h27.5v6.8h-19.1Z"/>
    <path d="M316.8,59.6c0-10.8,8.4-18.8,19.9-18.8s19.9,8,19.9,18.8-8.5,18.8-19.9,18.8-19.9-8-19.9-18.8ZM348.1,59.6c0-6.9-4.9-11.6-11.4-11.6s-11.4,4.7-11.4,11.6,4.9,11.6,11.4,11.6,11.4-4.7,11.4-11.6Z"/>
    <path d="M385.6,77.8l-7-10.1h-7.7v10.1h-8.4v-36.4h15.8c9.7,0,15.8,5,15.8,13.2s-2.8,9.5-7.5,11.5l8.2,11.7h-9ZM377.7,48.2h-6.9v12.7h6.9c5.1,0,7.7-2.4,7.7-6.3s-2.6-6.3-7.7-6.3Z"/>
    <path d="M433.2,77.8v-21.8c0,0-10.8,18-10.8,18h-3.8l-10.7-17.5v21.4h-7.9v-36.4h7l13.6,22.6,13.4-22.6h6.9v36.4c.1,0-7.8,0-7.8,0Z"/>
    <path d="M471.9,74.2c-1.1,1.2-2.4,2.3-3.8,3.1-1.4.8-2.9,1.2-4.5,1.2s-2.9-.3-3.8-.8-1.6-1.3-2-2.2c-.4-.9-.6-1.9-.6-2.9,0-1.7.5-3.4,1.5-5.3,1-1.8,2.2-3.6,3.8-5.4,1.6-1.8,3.3-3.5,5.2-5.1,1.9-1.6,3.7-3.1,5.5-4.4l.8-.2c-.6.2-1.1.5-1.8.9-.6.4-1.2.7-1.8,1.1-.6.4-1.2.7-1.7.9-.6.3-1.1.4-1.6.4s-1.2-.2-1.7-.6c-.5-.4-1-.6-1.6-.6s-1,.2-1.4.7c-.4.5-.8,1.3-1.1,2.5l-.6,1.9h-1l1.2-3.8c.7-2,1.4-3.4,2.3-4.2.8-.7,1.7-1.1,2.6-1.1s1.2.2,1.7.5c.5.3.9.7,1.4,1,.5.3,1,.5,1.7.5s1.6-.1,2.2-.4c.7-.3,1.3-.7,1.9-1.2l.7-1,1.1.5c-1.8,1.5-3.5,3.1-5.2,4.8-1.7,1.7-3.2,3.5-4.5,5.3-1.3,1.9-2.4,3.8-3.2,5.8-.8,2-1.2,4-1.2,6.1s.3,2.9.8,3.6c.5.7,1.2,1,2.1,1s2.1-.3,3.3-1c1.1-.6,2.3-1.6,3.3-2.8l.2,1ZM477.7,77c1.7,0,3.2-.5,4.4-1.5,1.3-1,2.3-2.2,3.1-3.8.8-1.5,1.5-3.2,1.9-5,.4-1.8.7-3.5.8-5.1,0-1.6,0-3-.4-4.2-.7-.1-1.4-.4-2.1-.8-.8-.4-1.4-.9-2-1.5-.6-.6-.8-1.4-.8-2.4s.2-1.5.7-1.9c.5-.4,1-.6,1.5-.6s1,.2,1.4.5c.4.3.8.7,1.1,1.3.3.6.6,1.2.8,2,.2.7.4,1.6.6,2.4.3,1.6.5,3.3.4,5.3,0,1.9-.4,3.9-.9,5.9s-1.3,3.8-2.3,5.4-2.3,3-3.9,4c-1.6,1-3.5,1.5-5.6,1.5s-2.1-.2-3.1-.6-1.7-1.1-2.3-2.2c-.6-1-.9-2.5-.9-4.3s.3-3,.8-4.5c.5-1.5,1.2-2.8,2-4,.8-1.2,1.6-2.1,2.5-2.8.9-.7,1.7-1,2.4-1s.9.2,1.2.6c.3.4.4.9.5,1.4,0,.6.1,1.1.1,1.6,0,1.9-.5,3.8-1.5,5.7-1,1.9-2.6,3.7-4.8,5.4l-.3-.9c1.6-1.3,2.9-2.8,3.9-4.7,1-1.8,1.5-3.7,1.5-5.5s0-1.3-.2-1.7c-.1-.5-.4-.7-.8-.7-.6,0-1.2.4-1.9,1.3-.7.9-1.3,2-1.8,3.4-.5,1.4-.8,2.8-.8,4.3s.1,2.5.4,3.6c.3,1.2.8,2.1,1.5,2.9.7.8,1.7,1.1,2.8,1.1Z"/>
    <path d="M499.9,55.5c.7-2.1.5-3.2-.7-3.2s-1.5.4-2.1,1.3c-.6.9-1.3,2.2-2,4l-.7,1.9h-1l1.4-3.8c.5-1.5,1.1-2.6,1.9-3.3.7-.8,1.5-1.3,2.3-1.6.8-.3,1.6-.4,2.3-.4,1.1,0,1.9.2,2.4.7.5.5.8,1,.9,1.8.1.7,0,1.5-.1,2.4-.2.9-.4,1.7-.7,2.5l-5.6,15.8c-.3,1-.5,1.8-.3,2.4.1.6.5.9,1.2.9s1.4-.4,2-1.1c.6-.8,1.3-2.1,2.1-4.2l.7-1.9h1l-1.4,3.8c-.5,1.4-1.1,2.4-1.8,3.2-.7.8-1.4,1.3-2.2,1.7-.8.3-1.6.5-2.4.5-1.5,0-2.5-.3-3-1-.5-.7-.7-1.6-.6-2.7.1-1.1.4-2.3.9-3.5l5.6-15.8ZM501.5,41.6c.2-.9.6-1.7,1.4-2.3.7-.7,1.6-1,2.4-1s1.6.3,2.1,1c.5.7.7,1.4.5,2.3-.2.9-.6,1.7-1.4,2.3-.7.7-1.6,1-2.5,1s-1.6-.3-2.1-1c-.5-.7-.7-1.4-.5-2.3Z"/>
    <path d="M512.7,73.4c-.3,1.1-.2,2,.2,2.5.5.5,1.1.8,1.8.8s1.5-.3,2.3-1c.8-.7,1.6-2.1,2.3-4.2l.7-2h1l-1.1,3.3c-.8,2.3-1.7,3.8-2.9,4.6-1.2.8-2.6,1.2-4.2,1.2s-2.5-.3-3.2-.9c-.7-.6-1.2-1.5-1.3-2.6-.1-1.1,0-2.4.4-3.8l8.1-28.1c.8,0,1.7-.1,2.5-.2.8-.1,1.6-.3,2.2-.5l-8.8,30.9ZM525.9,51l-.2,1h-16.2l.3-1h16.1Z"/>
    <path d="M527.2,77.8h-4.5l10.3-34.7c.3-1.2.3-2-.1-2.6-.4-.6-1.5-.8-3.2-.8l.3-1.1c1.9,0,3.6-.2,5.1-.6,1.5-.4,2.9-.9,4.2-1.5l-12.1,41.3ZM528.6,70.1c1.3-3.6,2.6-6.7,3.8-9.3,1.2-2.5,2.4-4.6,3.6-6.1,1.2-1.5,2.4-2.7,3.6-3.4,1.2-.7,2.5-1,3.9-1s2.7.4,3.4,1.2c.6.8.9,1.8.8,3,0,1.2-.3,2.4-.7,3.7l-5,15.2c-.3.9-.4,1.7-.4,2.3,0,.6.4.9,1.2.9s1.3-.4,2-1.1,1.3-2.1,2.1-4.2l.7-1.9h1l-1.3,3.8c-.5,1.5-1.1,2.6-1.8,3.3-.7.8-1.5,1.3-2.2,1.6-.8.3-1.5.4-2.3.4-1.4,0-2.4-.3-2.9-.9s-.8-1.5-.7-2.6c0-1.1.4-2.4.8-3.7l4.9-14.9c.2-.5.3-1.1.5-1.8.1-.7.1-1.3,0-1.8-.2-.5-.7-.8-1.5-.8s-1.8.4-2.8,1.2c-1,.8-2,1.9-3,3.4s-2.1,3.2-3.1,5.3c-1,2-2,4.3-2.9,6.8-.9,2.5-1.8,5.2-2.6,8.1l1.2-6.7Z"/>
    <path d="M572.8,72.3c-.3,1.2-.5,2.2-.4,2.8,0,.6.3,1,.9,1.2s1.4.3,2.6.4l-.2,1c-.8,0-1.8-.1-3-.1-1.2,0-2.4,0-3.6,0s-2.6,0-3.7,0c-1.1,0-2.1,0-2.9.1l.3-1c1.1,0,2-.2,2.7-.4s1.2-.6,1.5-1.2c.4-.6.7-1.6,1-2.8l6.9-25.8c.3-1.3.5-2.2.4-2.8,0-.6-.4-1-.9-1.2-.5-.2-1.4-.4-2.6-.4l.3-1c.7,0,1.6,0,2.8.1,1.2,0,2.4,0,3.8,0s2.4,0,3.6,0c1.2,0,2.2,0,3-.1l-.3,1c-1.2,0-2.1.2-2.8.4-.7.2-1.2.6-1.5,1.2-.4.6-.7,1.6-1.1,2.8l-6.9,25.8Z"/>
    <path d="M587,77.8h-4.5l6.2-22.3c.3-1.2.5-2,.3-2.5-.1-.5-.5-.7-1.1-.7s-1.5.4-2.1,1.2c-.6.8-1.3,2.2-2,4.1l-.7,1.9h-1l1.3-3.8c.5-1.5,1.1-2.6,1.8-3.3.7-.8,1.5-1.3,2.2-1.6.8-.3,1.5-.4,2.2-.4,1,0,1.8.2,2.2.7.4.5.7,1,.7,1.8s0,1.5-.2,2.4c-.2.9-.3,1.7-.5,2.5l-5.1,20.2ZM600.4,51.6c-.8,0-1.6.4-2.5,1.1-.8.7-1.7,1.8-2.6,3.2s-1.8,3.1-2.7,5c-.9,2-1.8,4.1-2.6,6.5-.8,2.4-1.7,5-2.5,7.7l1.3-6.7c1.1-3.4,2.2-6.3,3.2-8.6,1-2.3,2-4.2,2.9-5.6,1-1.4,2-2.5,3-3.1,1-.6,2.1-1,3.2-1s1.7.3,2.3.8c.5.6.8,1.3.8,2.1s-.2,1.3-.5,1.9c-.3.6-.8,1-1.3,1.4-.5.3-1.1.5-1.8.5s-1.1-.2-1.5-.5c-.4-.3-.6-.8-.6-1.4s.1-1,.3-1.5c.2-.4.5-.8.8-1.1.3-.3.7-.6,1.2-.7,0,0-.1-.1-.2-.2,0,0-.2,0-.3,0Z"/>
    <path d="M611.3,55.5c.7-2.1.5-3.2-.7-3.2s-1.5.4-2.1,1.3c-.6.9-1.3,2.2-2,4l-.7,1.9h-1l1.4-3.8c.5-1.5,1.1-2.6,1.9-3.3.7-.8,1.5-1.3,2.3-1.6.8-.3,1.6-.4,2.3-.4,1.1,0,1.9.2,2.4.7.5.5.8,1,.9,1.8.1.7,0,1.5-.1,2.4-.2.9-.4,1.7-.7,2.5l-5.6,15.8c-.3,1-.5,1.8-.3,2.4.1.6.5.9,1.2.9s1.4-.4,2-1.1c.6-.8,1.3-2.1,2.1-4.2l.7-1.9h1l-1.4,3.8c-.5,1.4-1.1,2.4-1.8,3.2-.7.8-1.4,1.3-2.2,1.7-.8.3-1.6.5-2.4.5-1.5,0-2.5-.3-3-1-.5-.7-.7-1.6-.6-2.7.1-1.1.4-2.3.9-3.5l5.6-15.8ZM612.9,41.6c.2-.9.6-1.7,1.4-2.3.7-.7,1.6-1,2.4-1s1.6.3,2.1,1c.5.7.7,1.4.5,2.3-.2.9-.6,1.7-1.4,2.3-.7.7-1.6,1-2.5,1s-1.6-.3-2.1-1c-.5-.7-.7-1.4-.5-2.3Z"/>
    <path d="M624.7,77.8h-4.5l6.2-22.3c.1-.4.3-.9.3-1.4,0-.5,0-.9,0-1.3-.1-.4-.5-.5-1-.5s-1.4.4-2,1.1c-.6.7-1.2,2.1-2,4.2l-.7,1.9h-1l1.3-3.8c.8-2.2,1.7-3.6,2.8-4.3,1.1-.7,2.2-1,3.4-1s1.8.2,2.3.7c.5.5.7,1,.8,1.7,0,.7,0,1.5-.2,2.3-.2.9-.3,1.7-.5,2.5l-5.1,20.2ZM627.1,67c1.2-3.1,2.4-5.7,3.5-7.9,1.1-2.1,2.3-3.8,3.4-5.1,1.1-1.3,2.2-2.2,3.4-2.8,1.2-.6,2.4-.9,3.6-.9s2.7.4,3.4,1.2c.6.8.9,1.8.8,3,0,1.2-.3,2.4-.7,3.7l-5,15.2c-.3.9-.4,1.7-.4,2.3,0,.6.5.9,1.2.9s1.3-.4,2-1.1,1.3-2.1,2.1-4.2l.7-1.9h1l-1.3,3.8c-.5,1.5-1.1,2.6-1.8,3.3-.7.8-1.5,1.3-2.2,1.6-.8.3-1.5.4-2.3.4s-1.5-.1-2.1-.4c-.5-.3-.9-.6-1.2-1.1-.4-.6-.5-1.4-.4-2.4.1-1,.4-2.1.8-3.3l4.9-14.9c.2-.5.3-1.1.4-1.7.1-.7,0-1.3,0-1.8-.2-.5-.7-.8-1.5-.8s-1.7.4-2.7,1.1c-.9.7-1.9,1.8-2.9,3.1-1,1.3-2,2.9-3,4.8s-1.9,3.9-2.8,6.1c-.9,2.2-1.7,4.6-2.4,7.1l1.5-7.3Z"/>
    <path d="M656.3,55.5c.7-2.1.5-3.2-.7-3.2s-1.5.4-2.1,1.3c-.6.9-1.3,2.2-2,4l-.7,1.9h-1l1.4-3.8c.5-1.5,1.1-2.6,1.9-3.3.7-.8,1.5-1.3,2.3-1.6.8-.3,1.6-.4,2.3-.4,1.1,0,1.9.2,2.4.7.5.5.8,1,.9,1.8.1.7,0,1.5-.1,2.4-.2.9-.4,1.7-.7,2.5l-5.6,15.8c-.3,1-.5,1.8-.3,2.4.1.6.5.9,1.2.9s1.4-.4,2-1.1c.6-.8,1.3-2.1,2.1-4.2l.7-1.9h1l-1.4,3.8c-.5,1.4-1.1,2.4-1.8,3.2-.7.8-1.4,1.3-2.2,1.7-.8.3-1.6.5-2.4.5-1.5,0-2.5-.3-3-1-.5-.7-.7-1.6-.6-2.7.1-1.1.4-2.3.9-3.5l5.6-15.8ZM657.9,41.6c.2-.9.6-1.7,1.4-2.3.7-.7,1.6-1,2.4-1s1.6.3,2.1,1c.5.7.7,1.4.5,2.3-.2.9-.6,1.7-1.4,2.3-.7.7-1.6,1-2.5,1s-1.6-.3-2.1-1c-.5-.7-.7-1.4-.5-2.3Z"/>
  </g>
  <g>
    <path class="st0" d="M46.6,38.3c-3.3,0-6.5-3-7.6-7.2-1.2-4.8.9-9.4,4.6-10.3,3.7-.9,7.7,2.2,8.9,7,1.2,4.8-.9,9.4-4.6,10.3-.4.1-.9.2-1.3.2ZM45,22.9c-.3,0-.5,0-.8,0-2.5.6-3.9,4.1-3,7.7h0c.9,3.6,3.7,6,6.2,5.4,2.5-.6,3.9-4.1,3-7.7-.8-3.2-3.1-5.5-5.4-5.5Z"/>
    <path class="st0" d="M58.3,59.8c-1.4,0-2.8-.4-3.9-1.4-2.9-2.5-2.7-7.6.5-11.3,3.2-3.7,8.2-4.7,11.1-2.3,2.9,2.5,2.7,7.6-.5,11.3-2,2.4-4.7,3.6-7.2,3.6ZM62.1,45.7c-1.8,0-3.9,1-5.5,2.9h0c-2.4,2.8-2.8,6.5-.8,8.2,2,1.7,5.6.8,8-2,2.4-2.8,2.8-6.5.8-8.2-.7-.6-1.5-.9-2.5-.9Z"/>
    <path class="st0" d="M40.9,55.6c-1,0-1.9-.2-2.9-.6-2.2-.8-4.1-2.5-5.5-4.8-1.4-2.2-2-4.7-1.9-7,.2-2.4,1.3-4.4,3.1-5.5,1.8-1.1,4.1-1.3,6.4-.4,2.2.8,4.1,2.5,5.5,4.8h0c1.4,2.2,2,4.7,1.9,7-.2,2.4-1.3,4.4-3.1,5.5-1,.6-2.2,1-3.4,1ZM37.1,38.9c-.8,0-1.6.2-2.2.6-1.2.8-1.9,2.1-2.1,3.9-.2,1.9.4,3.9,1.5,5.7s2.7,3.2,4.5,3.9c1.6.6,3.2.6,4.4-.2,1.2-.8,1.9-2.1,2.1-3.9.2-1.9-.4-3.9-1.5-5.7h0c-1.1-1.8-2.7-3.2-4.5-3.9-.7-.3-1.5-.4-2.1-.4Z"/>
    <path class="st0" d="M25.9,87c-1.8,0-3.4-.4-4.9-1.1-2.2-1.1-3.6-2.8-4-4.9-.4-2.1.3-4.2,2-6,1.6-1.7,3.9-2.9,6.5-3.4h0c2.6-.5,5.1-.2,7.2.9,2.2,1.1,3.6,2.8,4,4.9.4,2.1-.3,4.2-2,6-1.6,1.7-3.9,2.9-6.5,3.4-.8.1-1.6.2-2.3.2ZM27.8,73.5c-.6,0-1.3,0-1.9.2h0c-2.1.4-4,1.3-5.2,2.7-1.2,1.3-1.7,2.7-1.4,4.1.3,1.4,1.3,2.6,2.8,3.4,1.7.8,3.7,1.1,5.9.7,2.1-.4,4-1.3,5.2-2.7,1.2-1.3,1.7-2.7,1.4-4.1-.3-1.4-1.3-2.6-2.8-3.4-1.2-.6-2.5-.9-3.9-.9Z"/>
    <path class="st0" d="M36.1,108.3l.8-2.7c.2-.5,4.2-13.5,14-15.8l1.7-.4-.4,1.7c-1.7,7.8-7.9,12.3-13.7,15.7l-2.4,1.4ZM49.6,92.6c-4.8,2.1-7.8,7.3-9.3,10.6,4-2.6,7.7-5.9,9.3-10.6Z"/>
    <path class="st0" d="M59.8,41.8c-1.4,0-2.8-.2-4.2-.7l-1.7-.5,1.2-1.3c5.5-5.8,13.1-6.5,19.9-6.4h2.8s-2.1,1.9-2.1,1.9c-.4.3-7.8,6.9-15.9,6.9ZM58.2,39.5c5.2.7,10.5-2.2,13.5-4.3-4.7.2-9.6,1.1-13.5,4.3Z"/>
    <path class="st0" d="M20.3,70.7c-6.3,0-12.4-2.3-17.7-4.8L0,64.7l2.7-.9c.7-.2,17.5-5.6,27.2,3.1l1.3,1.2-1.6.7c-3.1,1.3-6.2,1.8-9.3,1.8ZM6.3,65.2c6.3,2.7,13.5,4.5,20.6,2.3-6.5-4.5-15.8-3.3-20.6-2.3Z"/>
    <path class="st0" d="M19.5,98.4l1.8-2.1c.5-.6,13-15.3,27-12.8l1.7.3-1,1.4c-6.6,9.2-17.2,11.7-26.8,12.8l-2.8.3ZM45.1,85.4c-8.5,0-16.4,6.5-20,10,7.6-1.2,15.5-3.6,21-10-.3,0-.6,0-1,0Z"/>
    <path class="st0" d="M46.9,68.7l-1.7-.2c-11.3-1-18.8-9-24.6-16.6l-1.7-2.2,2.8.5c.8.1,19.7,3.5,24.7,16.9l.6,1.6ZM24.3,53c4.9,6,10.9,11.6,19.2,13-4.1-8-14.2-11.6-19.2-13Z"/>
    <path class="st0" d="M53.6,75.5l.6-1.7c4.2-12.5,15.2-18.8,25.5-23.3l2.6-1.1-1.1,2.6c0,.2-2.3,5.4-6.6,10.9-5.7,7.3-12.3,11.7-19.2,12.5l-1.7.2ZM77.7,53.8c-8.4,4-16.9,9.5-20.8,19,10.7-2.4,18-13.7,20.8-19Z"/>
    <path class="st0" d="M63.6,22.1l.6-1.6c3.9-10.6,13.6-15.8,22.4-19.4L89.3,0l-1.2,2.5c-.3.7-8.5,18.1-22.7,19.4l-1.7.2ZM84.6,4.3c-7,3.2-14.1,7.5-17.6,15.2,8.7-1.8,14.9-10.6,17.6-15.2Z"/>
    <path class="st0" d="M54.5,29.1l-.8-1.6c-3.6-7.1-1.7-14.5.7-20.9l1-2.6,1.1,2.6c.2.5,5.3,13.1-.9,21.1l-1.1,1.4ZM55.3,10.5c-1.4,4.5-2.2,9.4-.5,14.2,2.4-4.6,1.4-10.6.5-14.2Z"/>
    <path class="st0" d="M60.8,113c-.8-6.2-3-13.1-5.4-20.5-7-21.4-15.7-48.1,9.9-73.2l1.5,1.6c-24.6,24.2-16.5,49-9.3,71,2.4,7.4,4.7,14.4,5.5,20.9l-2.2.3Z"/>
    <path class="st0" d="M52.4,83.1c-7.4-8-15.7-12.7-24.6-14.1l.3-2.2c9.5,1.5,18.2,6.4,25.9,14.8l-1.6,1.5Z"/>
  </g>
</svg>