<?xml version="1.0" encoding="UTF-8"?>
<svg id="Layer_1" xmlns="http://www.w3.org/2000/svg" version="1.1" viewBox="0 0 89.3 113.1">
  <!-- Generator: Adobe Illustrator 29.2.1, SVG Export Plug-In . SVG Version: 2.1.0 Build 116)  -->
  <defs>
    <style>
      .st0 {
        fill: #d9915c;
      }
    </style>
  </defs>
  <path class="st0" d="M46.6,38.3c-3.3,0-6.5-3-7.6-7.2-1.2-4.8.9-9.4,4.6-10.3,3.7-.9,7.7,2.2,8.9,7s-.9,9.4-4.6,10.3c-.4,0-.9.2-1.3.2ZM45,22.9h-.8c-2.5.6-3.9,4.1-3,7.7h0c.9,3.6,3.7,6,6.2,5.4s3.9-4.1,3-7.7c-.8-3.2-3.1-5.5-5.4-5.5h0ZM58.3,59.8c-1.4,0-2.8-.4-3.9-1.4-2.9-2.5-2.7-7.6.5-11.3s8.2-4.7,11.1-2.3c2.9,2.5,2.7,7.6-.5,11.3-2,2.4-4.7,3.6-7.2,3.6h0ZM62.1,45.7c-1.8,0-3.9,1-5.5,2.9h0c-2.4,2.8-2.8,6.5-.8,8.2s5.6.8,8-2c2.4-2.8,2.8-6.5.8-8.2-.7-.6-1.5-.9-2.5-.9ZM40.9,55.6c-1,0-1.9-.2-2.9-.6-2.2-.8-4.1-2.5-5.5-4.8-1.4-2.2-2-4.7-1.9-7,.2-2.4,1.3-4.4,3.1-5.5,1.8-1.1,4.1-1.3,6.4-.4,2.2.8,4.1,2.5,5.5,4.8h0c1.4,2.2,2,4.7,1.9,7-.2,2.4-1.3,4.4-3.1,5.5-1,.6-2.2,1-3.4,1h-.1ZM37.1,38.9c-.8,0-1.6.2-2.2.6-1.2.8-1.9,2.1-2.1,3.9-.2,1.9.4,3.9,1.5,5.7s2.7,3.2,4.5,3.9c1.6.6,3.2.6,4.4-.2s1.9-2.1,2.1-3.9c.2-1.9-.4-3.9-1.5-5.7h0c-1.1-1.8-2.7-3.2-4.5-3.9-.7-.3-1.5-.4-2.1-.4h-.1ZM25.9,87c-1.8,0-3.4-.4-4.9-1.1-2.2-1.1-3.6-2.8-4-4.9s.3-4.2,2-6c1.6-1.7,3.9-2.9,6.5-3.4h0c2.6-.5,5.1-.2,7.2.9,2.2,1.1,3.6,2.8,4,4.9s-.3,4.2-2,6c-1.6,1.7-3.9,2.9-6.5,3.4-.8,0-1.6.2-2.3.2ZM27.8,73.5c-.6,0-1.3,0-1.9.2h0c-2.1.4-4,1.3-5.2,2.7-1.2,1.3-1.7,2.7-1.4,4.1.3,1.4,1.3,2.6,2.8,3.4,1.7.8,3.7,1.1,5.9.7,2.1-.4,4-1.3,5.2-2.7,1.2-1.3,1.7-2.7,1.4-4.1s-1.3-2.6-2.8-3.4c-1.2-.6-2.5-.9-3.9-.9h-.1ZM36.1,108.3l.8-2.7c.2-.5,4.2-13.5,14-15.8l1.7-.4-.4,1.7c-1.7,7.8-7.9,12.3-13.7,15.7l-2.4,1.4h0ZM49.6,92.6c-4.8,2.1-7.8,7.3-9.3,10.6,4-2.6,7.7-5.9,9.3-10.6ZM59.8,41.8c-1.4,0-2.8-.2-4.2-.7l-1.7-.5,1.2-1.3c5.5-5.8,13.1-6.5,19.9-6.4h2.8l-2.1,1.9c-.4.3-7.8,6.9-15.9,6.9h0ZM58.2,39.5c5.2.7,10.5-2.2,13.5-4.3-4.7.2-9.6,1.1-13.5,4.3ZM20.3,70.7c-6.3,0-12.4-2.3-17.7-4.8l-2.6-1.2,2.7-.9c.7-.2,17.5-5.6,27.2,3.1l1.3,1.2-1.6.7c-3.1,1.3-6.2,1.8-9.3,1.8h0ZM6.3,65.2c6.3,2.7,13.5,4.5,20.6,2.3-6.5-4.5-15.8-3.3-20.6-2.3ZM19.5,98.4l1.8-2.1c.5-.6,13-15.3,27-12.8l1.7.3-1,1.4c-6.6,9.2-17.2,11.7-26.8,12.8l-2.8.3h0ZM45.1,85.4c-8.5,0-16.4,6.5-20,10,7.6-1.2,15.5-3.6,21-10h-1ZM46.9,68.7l-1.7-.2c-11.3-1-18.8-9-24.6-16.6l-1.7-2.2,2.8.5c.8,0,19.7,3.5,24.7,16.9l.6,1.6h0ZM24.3,53c4.9,6,10.9,11.6,19.2,13-4.1-8-14.2-11.6-19.2-13ZM53.6,75.5l.6-1.7c4.2-12.5,15.2-18.8,25.5-23.3l2.6-1.1-1.1,2.6c0,.2-2.3,5.4-6.6,10.9-5.7,7.3-12.3,11.7-19.2,12.5l-1.7.2h0ZM77.7,53.8c-8.4,4-16.9,9.5-20.8,19,10.7-2.4,18-13.7,20.8-19ZM63.6,22.1l.6-1.6c3.9-10.6,13.6-15.8,22.4-19.4l2.7-1.1-1.2,2.5c-.3.7-8.5,18.1-22.7,19.4l-1.7.2h-.1ZM84.6,4.3c-7,3.2-14.1,7.5-17.6,15.2,8.7-1.8,14.9-10.6,17.6-15.2ZM54.5,29.1l-.8-1.6c-3.6-7.1-1.7-14.5.7-20.9l1-2.6,1.1,2.6c.2.5,5.3,13.1-.9,21.1l-1.1,1.4ZM55.3,10.5c-1.4,4.5-2.2,9.4-.5,14.2,2.4-4.6,1.4-10.6.5-14.2ZM60.8,113c-.8-6.2-3-13.1-5.4-20.5-7-21.4-15.7-48.1,9.9-73.2l1.5,1.6c-24.6,24.2-16.5,49-9.3,71,2.4,7.4,4.7,14.4,5.5,20.9l-2.2.3h0ZM52.4,83.1c-7.4-8-15.7-12.7-24.6-14.1l.3-2.2c9.5,1.5,18.2,6.4,25.9,14.8,0,0-1.6,1.5-1.6,1.5Z"/>
</svg>